<svg id="Layer_1" data-name="Layer 1" xmlns="http://www.w3.org/2000/svg" viewBox="0 0 512 512"><title>gesture-46-filled</title><path d="M181.85,113.54a15.75,15.75,0,1,0,22.28-22.28L156.86,44a15.75,15.75,0,0,0-22.28,22.28Z"/><path d="M377.42,44a15.75,15.75,0,0,0-22.28,0L307.88,91.26a15.75,15.75,0,1,0,22.28,22.28l47.26-47.26A15.75,15.75,0,0,0,377.42,44Z"/><path d="M413.54,141.78h-63a15.75,15.75,0,0,0,0,31.51h63a15.75,15.75,0,1,0,0-31.51Z"/><path d="M161.48,173.29a15.75,15.75,0,0,0,0-31.51h-63a15.75,15.75,0,1,0,0,31.51Z"/><path d="M240.25,15.75v63a15.75,15.75,0,0,0,31.51,0v-63a15.75,15.75,0,0,0-31.51,0Z"/><path d="M383.38,275.69H256a7.88,7.88,0,0,1-6.14-12.81c31.58-39.36,29.8-86.8,29.78-87.28a25.7,25.7,0,0,0-25.58-25.95c-10.78,0-15.28,11.5-16.4,15l-2.3,7.31c-12.88,41.29-32.34,103.7-112.71,103.7h-3.31a13,13,0,0,0-13,13V475.37a13,13,0,0,0,13,13h25.18a181.77,181.77,0,0,1,62.79,11.15l13.69,5A122,122,0,0,0,263.12,512h62.42c12.81,0,23.73-9.35,24.87-21.28a23.63,23.63,0,0,0-23.52-26H311.41a8.05,8.05,0,0,1-8.13-7.36,7.88,7.88,0,0,1,7.86-8.39h38C362,449,372.9,439.64,374,427.7a23.63,23.63,0,0,0-23.52-26H335a8.05,8.05,0,0,1-8.13-7.36,7.88,7.88,0,0,1,7.86-8.39h45.91c12.81,0,23.73-9.35,24.87-21.28a23.63,23.63,0,0,0-23.52-26H366.54a8.05,8.05,0,0,1-8.13-7.36,7.88,7.88,0,0,1,7.86-8.39H382c12.81,0,23.73-9.35,24.87-21.28a23.63,23.63,0,0,0-23.52-26Z"/></svg>